<!-- Generator: Adobe Illustrator 21.1.0, SVG Export Plug-In  -->
<svg version="1.1"
	 xmlns="http://www.w3.org/2000/svg" xmlns:xlink="http://www.w3.org/1999/xlink" xmlns:a="http://ns.adobe.com/AdobeSVGViewerExtensions/3.0/"
	 x="0px" y="0px" width="200px" height="50px" viewBox="0 0 200 50" style="enable-background:new 0 0 200 50;"
	 xml:space="preserve">
<style type="text/css">
	.st0{fill:#6D0F12;}
	.st1{fill:#AC1F24;}
	.st2{fill:#EC1C24;}
	.st3{fill:#F05B40;}
	.st4{fill:#F48366;}
	.st5{fill:#F8A98E;}
	.st6{fill:#560B1D;}
	.st7{fill:#FBD2C0;}
</style>
<defs>
</defs>
<g>
	<g>
		<g>
			<g>
				<polygon class="st0" points="117.404,25 114.71,22.306 110.046,24.999 110.046,25.001 114.71,27.694 				"/>
			</g>
			<g>
				<path class="st0" d="M144.055,9.613l3.68-0.986V3.403c-0.047-0.027-0.094-0.055-0.141-0.082l-4.525,2.612L144.055,9.613z"/>
			</g>
			<g>
				<path class="st0" d="M144.055,40.387l-0.986,3.68l4.65,2.685c0.005-0.003,0.01-0.006,0.016-0.009v-5.37L144.055,40.387z"/>
			</g>
			<g>
				<path class="st0" d="M152.333,20.402l3.299,1.905l3.79-3.79c-0.002-0.009-0.005-0.018-0.008-0.026l-5.177-1.387L152.333,20.402z
					"/>
			</g>
			<g>
				<path class="st0" d="M122.608,12.437v-3.81l-5.071-1.359c-0.033,0.032-0.065,0.065-0.097,0.097l1.359,5.071H122.608z"/>
			</g>
			<g>
				<path class="st0" d="M130.573,42.162l-3.299,1.905l1.368,5.105c0.033,0.009,0.066,0.019,0.099,0.027l3.738-3.737L130.573,42.162
					z"/>
			</g>
			<g>
				<polygon class="st0" points="116.105,32.898 113.411,37.563 118.798,37.563 119.784,33.884 				"/>
			</g>
			<g>
				<path class="st0" d="M135.171,7.233l2.694-2.694L135.245,0c-0.004,0-0.008,0-0.011,0c-0.046,0-0.091,0.003-0.137,0.003
					l-2.619,4.536L135.171,7.233z"/>
			</g>
			<g>
				<polygon class="st0" points="151.544,37.563 156.932,37.563 154.238,32.898 150.558,33.884 				"/>
			</g>
			<g>
				<path class="st0" d="M139.77,42.162l-1.905,3.299l3.737,3.737c0.033-0.008,0.066-0.018,0.1-0.027l1.368-5.104L139.77,42.162z"/>
			</g>
			<g>
				<path class="st0" d="M118.009,20.402l-1.905-3.299l-5.18,1.388c-0.002,0.008-0.005,0.016-0.007,0.024l3.792,3.792
					L118.009,20.402z"/>
			</g>
			<g>
				<path class="st0" d="M147.735,12.437h3.81l1.359-5.072c-0.033-0.033-0.068-0.063-0.101-0.096l-5.068,1.358V12.437z"/>
			</g>
			<g>
				<path class="st0" d="M126.288,40.387l-3.68,0.986v5.368c0.006,0.003,0.012,0.007,0.017,0.01l4.648-2.684L126.288,40.387z"/>
			</g>
			<g>
				<polygon class="st0" points="152.939,25 155.632,27.694 160.297,25.001 160.297,25 155.632,22.306 				"/>
			</g>
			<g>
				<path class="st0" d="M126.288,9.613l0.986-3.68l-4.524-2.612c-0.047,0.027-0.094,0.053-0.141,0.081v5.225L126.288,9.613z"/>
			</g>
			<g>
				<polygon class="st0" points="147.735,41.373 152.939,42.767 151.544,37.563 147.735,37.563 				"/>
			</g>
			<g>
				<polygon class="st0" points="114.71,27.694 110.901,31.503 116.105,32.898 118.009,29.598 				"/>
			</g>
			<g>
				<path class="st0" d="M139.77,7.838l3.299-1.905l-1.354-5.055c-0.049-0.013-0.098-0.029-0.147-0.042l-3.703,3.703L139.77,7.838z"
					/>
			</g>
			<g>
				<path class="st0" d="M135.171,42.767l-2.694,2.694l2.62,4.539c0.004,0,0.007,0,0.011,0c0.046,0,0.091-0.003,0.137-0.003
					l2.619-4.536L135.171,42.767z"/>
			</g>
			<g>
				<path class="st0" d="M119.784,16.116l-0.986-3.68h-5.3c-0.015,0.025-0.029,0.05-0.044,0.075l2.65,4.59L119.784,16.116z"/>
			</g>
			<g>
				<path class="st0" d="M150.558,16.116l3.68,0.986l2.65-4.59c-0.015-0.025-0.029-0.051-0.044-0.076h-5.3L150.558,16.116z"/>
			</g>
			<g>
				<polygon class="st0" points="154.238,32.898 159.442,31.503 155.632,27.694 152.333,29.598 				"/>
			</g>
			<g>
				<polygon class="st0" points="118.798,37.563 117.404,42.767 122.608,41.373 122.608,37.563 				"/>
			</g>
			<g>
				<path class="st0" d="M130.573,7.838l1.905-3.299l-3.701-3.701c-0.05,0.013-0.099,0.029-0.149,0.042l-1.354,5.053L130.573,7.838z
					"/>
			</g>
		</g>
		<g>
			<g>
				<polygon class="st1" points="147.735,12.437 147.735,8.627 144.055,9.613 144.812,12.437 				"/>
			</g>
			<g>
				<polygon class="st1" points="118.009,20.402 114.71,22.306 117.404,25 119.471,22.933 				"/>
			</g>
			<g>
				<polygon class="st1" points="139.77,42.162 143.069,44.067 144.055,40.387 141.231,39.63 				"/>
			</g>
			<g>
				<polygon class="st1" points="152.939,25 155.632,22.306 152.333,20.402 150.872,22.933 				"/>
			</g>
			<g>
				<polygon class="st1" points="126.288,40.387 127.274,44.067 130.573,42.162 129.111,39.63 				"/>
			</g>
			<g>
				<polygon class="st1" points="126.288,9.613 122.608,8.627 122.608,12.437 125.531,12.437 				"/>
			</g>
			<g>
				<polygon class="st1" points="119.471,27.067 117.404,25 114.71,27.694 118.009,29.598 				"/>
			</g>
			<g>
				<polygon class="st1" points="144.055,9.613 143.069,5.933 139.77,7.838 141.231,10.37 				"/>
			</g>
			<g>
				<polygon class="st1" points="144.812,37.563 144.055,40.387 147.735,41.373 147.735,37.563 				"/>
			</g>
			<g>
				<polygon class="st1" points="147.735,34.64 147.735,37.563 151.544,37.563 150.558,33.884 				"/>
			</g>
			<g>
				<polygon class="st1" points="120.541,31.06 118.009,29.598 116.105,32.898 119.784,33.884 				"/>
			</g>
			<g>
				<polygon class="st1" points="139.77,7.838 137.865,4.539 135.171,7.233 137.238,9.3 				"/>
			</g>
			<g>
				<polygon class="st1" points="130.573,42.162 132.478,45.461 135.171,42.767 133.104,40.7 				"/>
			</g>
			<g>
				<polygon class="st1" points="152.333,20.402 154.238,17.102 150.558,16.116 149.802,18.94 				"/>
			</g>
			<g>
				<polygon class="st1" points="122.608,12.437 118.798,12.437 119.784,16.116 122.608,15.36 				"/>
			</g>
			<g>
				<polygon class="st1" points="135.171,42.767 137.865,45.461 139.77,42.162 137.238,40.7 				"/>
			</g>
			<g>
				<polygon class="st1" points="119.784,16.116 116.105,17.102 118.009,20.402 120.541,18.94 				"/>
			</g>
			<g>
				<polygon class="st1" points="150.558,16.116 151.544,12.437 147.735,12.437 147.735,15.36 				"/>
			</g>
			<g>
				<polygon class="st1" points="122.608,34.64 119.784,33.884 118.798,37.563 122.608,37.563 				"/>
			</g>
			<g>
				<polygon class="st1" points="135.171,7.233 132.478,4.539 130.573,7.838 133.104,9.3 				"/>
			</g>
			<g>
				<polygon class="st1" points="149.802,31.06 150.558,33.884 154.238,32.898 152.333,29.598 				"/>
			</g>
			<g>
				<polygon class="st1" points="150.872,27.067 152.333,29.598 155.632,27.694 152.939,25 				"/>
			</g>
			<g>
				<polygon class="st1" points="122.608,37.563 122.608,41.373 126.288,40.387 125.531,37.563 				"/>
			</g>
			<g>
				<polygon class="st1" points="130.573,7.838 127.274,5.933 126.288,9.613 129.111,10.37 				"/>
			</g>
		</g>
		<g>
			<g>
				<polygon class="st2" points="138.926,10.987 141.231,10.37 139.77,7.838 137.238,9.3 				"/>
			</g>
			<g>
				<polygon class="st2" points="119.471,27.067 118.009,29.598 120.541,31.06 121.159,28.755 				"/>
			</g>
			<g>
				<polygon class="st2" points="144.812,37.563 147.735,37.563 147.735,34.64 145.429,35.258 				"/>
			</g>
			<g>
				<polygon class="st2" points="142.425,12.437 144.812,12.437 144.055,9.613 141.231,10.37 				"/>
			</g>
			<g>
				<polygon class="st2" points="120.664,25 119.471,22.933 117.404,25 119.471,27.067 				"/>
			</g>
			<g>
				<polygon class="st2" points="142.425,37.563 141.231,39.63 144.055,40.387 144.812,37.563 				"/>
			</g>
			<g>
				<polygon class="st2" points="138.926,39.013 137.238,40.7 139.77,42.162 141.231,39.63 				"/>
			</g>
			<g>
				<polygon class="st2" points="121.159,21.245 120.541,18.94 118.009,20.402 119.471,22.933 				"/>
			</g>
			<g>
				<polygon class="st2" points="145.429,14.742 147.735,15.36 147.735,12.437 144.812,12.437 				"/>
			</g>
			<g>
				<polygon class="st2" points="122.608,17.747 122.608,15.36 119.784,16.116 120.541,18.94 				"/>
			</g>
			<g>
				<polygon class="st2" points="147.735,17.747 149.802,18.94 150.558,16.116 147.735,15.36 				"/>
			</g>
			<g>
				<polygon class="st2" points="135.171,39.507 133.104,40.7 135.171,42.767 137.238,40.7 				"/>
			</g>
			<g>
				<polygon class="st2" points="131.417,39.013 129.111,39.63 130.573,42.162 133.104,40.7 				"/>
			</g>
			<g>
				<polygon class="st2" points="149.184,21.245 150.872,22.933 152.333,20.402 149.802,18.94 				"/>
			</g>
			<g>
				<polygon class="st2" points="124.913,14.742 125.531,12.437 122.608,12.437 122.608,15.36 				"/>
			</g>
			<g>
				<polygon class="st2" points="127.918,12.437 129.111,10.37 126.288,9.613 125.531,12.437 				"/>
			</g>
			<g>
				<polygon class="st2" points="149.678,25 150.872,27.067 152.939,25 150.872,22.933 				"/>
			</g>
			<g>
				<polygon class="st2" points="127.918,37.563 125.531,37.563 126.288,40.387 129.111,39.63 				"/>
			</g>
			<g>
				<polygon class="st2" points="149.802,31.06 152.333,29.598 150.872,27.067 149.184,28.755 				"/>
			</g>
			<g>
				<polygon class="st2" points="131.417,10.987 133.104,9.3 130.573,7.838 129.111,10.37 				"/>
			</g>
			<g>
				<polygon class="st2" points="122.608,34.64 122.608,37.563 125.531,37.563 124.913,35.258 				"/>
			</g>
			<g>
				<polygon class="st2" points="120.541,31.06 119.784,33.884 122.608,34.64 122.608,32.253 				"/>
			</g>
			<g>
				<polygon class="st2" points="135.171,10.493 137.238,9.3 135.171,7.233 133.104,9.3 				"/>
			</g>
			<g>
				<polygon class="st2" points="147.735,34.64 150.558,33.884 149.802,31.06 147.735,32.253 				"/>
			</g>
		</g>
		<g>
			<g>
				<polygon class="st3" points="121.689,26.775 120.664,25 119.471,27.067 121.159,28.755 				"/>
			</g>
			<g>
				<polygon class="st3" points="143.45,35.788 142.425,37.563 144.812,37.563 145.429,35.258 				"/>
			</g>
			<g>
				<polygon class="st3" points="142.425,12.437 141.231,10.37 138.926,10.987 140.375,12.437 				"/>
			</g>
			<g>
				<polygon class="st3" points="122.608,17.747 120.541,18.94 121.159,21.245 122.608,19.796 				"/>
			</g>
			<g>
				<polygon class="st3" points="135.171,39.507 137.238,40.7 138.926,39.013 136.946,38.482 				"/>
			</g>
			<g>
				<polygon class="st3" points="147.735,17.747 147.735,15.36 145.429,14.742 145.96,16.722 				"/>
			</g>
			<g>
				<polygon class="st3" points="131.417,39.013 133.104,40.7 135.171,39.507 133.396,38.482 				"/>
			</g>
			<g>
				<polygon class="st3" points="124.913,14.742 122.608,15.36 122.608,17.747 124.383,16.722 				"/>
			</g>
			<g>
				<polygon class="st3" points="149.184,21.245 149.802,18.94 147.735,17.747 147.735,19.796 				"/>
			</g>
			<g>
				<polygon class="st3" points="121.159,21.245 119.471,22.933 120.664,25 121.689,23.225 				"/>
			</g>
			<g>
				<polygon class="st3" points="138.926,39.013 141.231,39.63 142.425,37.563 140.375,37.563 				"/>
			</g>
			<g>
				<polygon class="st3" points="145.429,14.742 144.812,12.437 142.425,12.437 143.45,14.211 				"/>
			</g>
			<g>
				<polygon class="st3" points="124.913,35.258 125.531,37.563 127.918,37.563 126.893,35.788 				"/>
			</g>
			<g>
				<polygon class="st3" points="148.653,26.775 149.184,28.755 150.872,27.067 149.678,25 				"/>
			</g>
			<g>
				<polygon class="st3" points="131.417,10.987 129.111,10.37 127.918,12.437 129.967,12.437 				"/>
			</g>
			<g>
				<polygon class="st3" points="145.96,33.278 145.429,35.258 147.735,34.64 147.735,32.253 				"/>
			</g>
			<g>
				<polygon class="st3" points="122.608,30.204 121.159,28.755 120.541,31.06 122.608,32.253 				"/>
			</g>
			<g>
				<polygon class="st3" points="138.926,10.987 137.238,9.3 135.171,10.493 136.946,11.518 				"/>
			</g>
			<g>
				<polygon class="st3" points="147.735,30.204 147.735,32.253 149.802,31.06 149.184,28.755 				"/>
			</g>
			<g>
				<polygon class="st3" points="135.171,10.493 133.104,9.3 131.417,10.987 133.396,11.518 				"/>
			</g>
			<g>
				<polygon class="st3" points="124.383,33.278 122.608,32.253 122.608,34.64 124.913,35.258 				"/>
			</g>
			<g>
				<polygon class="st3" points="149.678,25 150.872,22.933 149.184,21.245 148.653,23.225 				"/>
			</g>
			<g>
				<polygon class="st3" points="127.918,12.437 125.531,12.437 124.913,14.742 126.893,14.211 				"/>
			</g>
			<g>
				<polygon class="st3" points="127.918,37.563 129.111,39.63 131.417,39.013 129.967,37.563 				"/>
			</g>
		</g>
		<g>
			<g>
				<polygon class="st4" points="146.435,18.497 147.735,19.796 147.735,17.747 145.96,16.722 				"/>
			</g>
			<g>
				<polygon class="st4" points="123.907,18.497 124.383,16.722 122.608,17.747 122.608,19.796 				"/>
			</g>
			<g>
				<polygon class="st4" points="135.171,38.007 133.396,38.482 135.171,39.507 136.946,38.482 				"/>
			</g>
			<g>
				<polygon class="st4" points="122.608,21.634 122.608,19.796 121.159,21.245 121.689,23.225 				"/>
			</g>
			<g>
				<polygon class="st4" points="144.368,15.803 145.96,16.722 145.429,14.742 143.45,14.211 				"/>
			</g>
			<g>
				<polygon class="st4" points="138.538,37.563 136.946,38.482 138.926,39.013 140.375,37.563 				"/>
			</g>
			<g>
				<polygon class="st4" points="122.165,25 121.689,23.225 120.664,25 121.689,26.775 				"/>
			</g>
			<g>
				<polygon class="st4" points="141.675,36.264 140.375,37.563 142.425,37.563 143.45,35.788 				"/>
			</g>
			<g>
				<polygon class="st4" points="141.675,13.736 143.45,14.211 142.425,12.437 140.375,12.437 				"/>
			</g>
			<g>
				<polygon class="st4" points="121.689,26.775 121.159,28.755 122.608,30.204 122.608,28.366 				"/>
			</g>
			<g>
				<polygon class="st4" points="138.538,12.437 140.375,12.437 138.926,10.987 136.946,11.518 				"/>
			</g>
			<g>
				<polygon class="st4" points="143.45,35.788 145.429,35.258 145.96,33.278 144.368,34.197 				"/>
			</g>
			<g>
				<polygon class="st4" points="122.608,30.204 122.608,32.253 124.383,33.278 123.907,31.503 				"/>
			</g>
			<g>
				<polygon class="st4" points="145.96,33.278 147.735,32.253 147.735,30.204 146.435,31.503 				"/>
			</g>
			<g>
				<polygon class="st4" points="135.171,11.993 136.946,11.518 135.171,10.493 133.396,11.518 				"/>
			</g>
			<g>
				<polygon class="st4" points="147.735,30.204 149.184,28.755 148.653,26.775 147.735,28.366 				"/>
			</g>
			<g>
				<polygon class="st4" points="131.805,12.437 133.396,11.518 131.417,10.987 129.967,12.437 				"/>
			</g>
			<g>
				<polygon class="st4" points="124.383,33.278 124.913,35.258 126.893,35.788 125.974,34.197 				"/>
			</g>
			<g>
				<polygon class="st4" points="128.668,13.736 129.967,12.437 127.918,12.437 126.893,14.211 				"/>
			</g>
			<g>
				<polygon class="st4" points="148.178,25 148.653,26.775 149.678,25 148.653,23.225 				"/>
			</g>
			<g>
				<polygon class="st4" points="128.668,36.264 126.893,35.788 127.918,37.563 129.967,37.563 				"/>
			</g>
			<g>
				<polygon class="st4" points="125.974,15.803 126.893,14.211 124.913,14.742 124.383,16.722 				"/>
			</g>
			<g>
				<polygon class="st4" points="131.805,37.563 129.967,37.563 131.417,39.013 133.396,38.482 				"/>
			</g>
			<g>
				<polygon class="st4" points="147.735,21.634 148.653,23.225 149.184,21.245 147.735,19.796 				"/>
			</g>
		</g>
		<g>
			<g>
				<polygon class="st5" points="122.608,21.634 121.689,23.225 122.165,25 122.608,23.346 				"/>
			</g>
			<g>
				<polygon class="st5" points="144.368,15.803 143.45,14.211 141.675,13.736 142.885,14.947 				"/>
			</g>
			<g>
				<polygon class="st5" points="138.538,37.563 140.375,37.563 141.675,36.264 140.021,36.707 				"/>
			</g>
			<g>
				<polygon class="st5" points="146.435,18.497 145.96,16.722 144.368,15.803 145.225,17.286 				"/>
			</g>
			<g>
				<polygon class="st5" points="123.907,18.497 122.608,19.796 122.608,21.634 123.464,20.151 				"/>
			</g>
			<g>
				<polygon class="st5" points="135.171,38.007 136.946,38.482 138.538,37.563 136.825,37.563 				"/>
			</g>
			<g>
				<polygon class="st5" points="146.878,29.849 146.435,31.503 147.735,30.204 147.735,28.366 				"/>
			</g>
			<g>
				<polygon class="st5" points="125.118,32.714 123.907,31.503 124.383,33.278 125.974,34.197 				"/>
			</g>
			<g>
				<polygon class="st5" points="135.171,11.993 133.396,11.518 131.805,12.437 133.517,12.437 				"/>
			</g>
			<g>
				<polygon class="st5" points="123.464,29.849 122.608,28.366 122.608,30.204 123.907,31.503 				"/>
			</g>
			<g>
				<polygon class="st5" points="138.538,12.437 136.946,11.518 135.171,11.993 136.825,12.437 				"/>
			</g>
			<g>
				<polygon class="st5" points="145.225,32.714 144.368,34.197 145.96,33.278 146.435,31.503 				"/>
			</g>
			<g>
				<polygon class="st5" points="131.805,37.563 133.396,38.482 135.171,38.007 133.517,37.563 				"/>
			</g>
			<g>
				<polygon class="st5" points="147.735,21.634 147.735,19.796 146.435,18.497 146.878,20.151 				"/>
			</g>
			<g>
				<polygon class="st5" points="125.974,15.803 124.383,16.722 123.907,18.497 125.118,17.286 				"/>
			</g>
			<g>
				<polygon class="st5" points="128.668,36.264 129.967,37.563 131.805,37.563 130.322,36.707 				"/>
			</g>
			<g>
				<polygon class="st5" points="148.178,25 148.653,23.225 147.735,21.634 147.735,23.346 				"/>
			</g>
			<g>
				<polygon class="st5" points="128.668,13.736 126.893,14.211 125.974,15.803 127.457,14.947 				"/>
			</g>
			<g>
				<polygon class="st5" points="142.885,35.053 141.675,36.264 143.45,35.788 144.368,34.197 				"/>
			</g>
			<g>
				<polygon class="st5" points="141.675,13.736 140.375,12.437 138.538,12.437 140.021,13.293 				"/>
			</g>
			<g>
				<polygon class="st5" points="122.608,26.654 122.165,25 121.689,26.775 122.608,28.366 				"/>
			</g>
			<g>
				<polygon class="st5" points="147.735,26.654 147.735,28.366 148.653,26.775 148.178,25 				"/>
			</g>
			<g>
				<polygon class="st5" points="125.974,34.197 126.893,35.788 128.668,36.264 127.457,35.053 				"/>
			</g>
			<g>
				<polygon class="st5" points="131.805,12.437 129.967,12.437 128.668,13.736 130.322,13.293 				"/>
			</g>
		</g>
		<g>
			<polygon class="st6" points="110.044,25 110.046,25.001 110.046,25 			"/>
			<path class="st6" d="M147.735,46.761v-0.018c-0.005,0.003-0.01,0.006-0.016,0.009L147.735,46.761z"/>
			<path class="st6" d="M159.442,18.497l-0.027-0.007c0.002,0.009,0.005,0.018,0.008,0.026L159.442,18.497z"/>
			<path class="st6" d="M110.901,18.497l0.017,0.017c0.002-0.008,0.005-0.016,0.007-0.024L110.901,18.497z"/>
			<polygon class="st6" points="160.298,25 160.297,24.999 160.297,25.001 			"/>
			<g>
				<path class="st6" d="M147.593,3.321c-1.832-1.05-3.803-1.877-5.879-2.443l1.354,5.055L147.593,3.321z"/>
			</g>
			<g>
				<path class="st6" d="M152.803,7.269c-1.515-1.492-3.219-2.791-5.068-3.866v5.224L152.803,7.269z"/>
			</g>
			<g>
				<path class="st6" d="M141.568,0.836c-2.024-0.538-4.143-0.829-6.323-0.836l2.62,4.539L141.568,0.836z"/>
			</g>
			<g>
				<path class="st6" d="M160.297,24.999c0-2.24-0.307-4.413-0.874-6.483l-3.79,3.79L160.297,24.999z"/>
			</g>
			<g>
				<path class="st6" d="M156.844,12.437c-1.096-1.853-2.421-3.559-3.941-5.072l-1.359,5.072H156.844z"/>
			</g>
			<g>
				<path class="st6" d="M159.415,18.49c-0.581-2.115-1.437-4.12-2.527-5.977l-2.65,4.59L159.415,18.49z"/>
			</g>
			<g>
				<path class="st6" d="M128.74,49.198c2.031,0.517,4.161,0.795,6.358,0.801l-2.62-4.539L128.74,49.198z"/>
			</g>
			<g>
				<path class="st6" d="M155.632,27.694l3.81,3.81l-5.204,1.394l2.694,4.666h-5.388l1.394,5.204l-5.204-1.394v5.37
					c7.487-4.214,12.54-12.156,12.563-21.68c0-0.021-0.001-0.041-0.001-0.062L155.632,27.694z"/>
			</g>
			<g>
				<path class="st6" d="M117.44,7.365c-1.52,1.512-2.845,3.218-3.941,5.071h5.3L117.44,7.365z"/>
			</g>
			<g>
				<path class="st6" d="M113.454,12.512c-1.09,1.857-1.948,3.862-2.529,5.978l5.18-1.388L113.454,12.512z"/>
			</g>
			<g>
				<path class="st6" d="M110.918,18.514c-0.561,2.052-0.868,4.204-0.873,6.423c0,0.021,0.001,0.041,0.001,0.062l4.664-2.693
					L110.918,18.514z"/>
			</g>
			<g>
				<path class="st6" d="M117.404,42.767l1.394-5.204h-5.388l2.694-4.666l-5.204-1.394l3.81-3.81l-4.664-2.693
					c-0.001,9.541,5.054,17.513,12.562,21.74v-5.368L117.404,42.767z"/>
			</g>
			<g>
				<path class="st6" d="M122.608,3.402c-1.849,1.075-3.555,2.374-5.071,3.866l5.071,1.359V3.402z"/>
			</g>
			<g>
				<path class="st6" d="M122.625,46.75c1.868,1.049,3.885,1.869,6.016,2.421l-1.368-5.105L122.625,46.75z"/>
			</g>
			<g>
				<path class="st6" d="M135.246,49.997c2.196-0.006,4.325-0.283,6.356-0.799l-3.737-3.737L135.246,49.997z"/>
			</g>
			<g>
				<path class="st6" d="M135.096,0.003c-2.178,0.007-4.296,0.297-6.319,0.835l3.701,3.701L135.096,0.003z"/>
			</g>
			<g>
				<path class="st6" d="M128.628,0.88c-2.075,0.565-4.047,1.392-5.878,2.441l4.524,2.612L128.628,0.88z"/>
			</g>
			<g>
				<path class="st6" d="M141.701,49.171c2.131-0.552,4.149-1.37,6.018-2.419l-4.65-2.685L141.701,49.171z"/>
			</g>
		</g>
		<g>
			<path class="st7" d="M147.735,23.346v-1.712l-0.856-1.483l-0.443-1.654l-1.211-1.211l-0.856-1.483l-1.483-0.856l-1.211-1.211
				l-1.654-0.443l-1.483-0.856h-1.712l-1.654-0.443l-1.654,0.443h-1.712l-1.483,0.856l-1.654,0.443l-1.211,1.211l-1.483,0.856
				l-0.856,1.483l-1.211,1.211l-0.443,1.654l-0.856,1.483v1.712L122.165,25l0.443,1.654v1.712l0.856,1.483l0.443,1.654l1.211,1.211
				l0.856,1.483l1.483,0.856l1.211,1.211l1.654,0.443l1.483,0.856h1.713l1.654,0.443l1.654-0.443h1.713l1.483-0.856l1.654-0.443
				l1.211-1.211l1.483-0.856l0.856-1.483l1.211-1.211l0.443-1.654l0.856-1.483v-1.712L148.178,25L147.735,23.346z M147.357,28.062
				c-0.07,0.286-0.139,0.572-0.228,0.849c-0.198,0.618-0.449,1.207-0.735,1.775l-0.793,1.373c-0.333,0.492-0.709,0.949-1.108,1.384
				c-0.25,0.273-0.51,0.534-0.783,0.783c-2.251,2.052-5.259,3.281-8.571,3.273c-3.298-0.008-6.288-1.242-8.525-3.289
				c-0.263-0.241-0.515-0.493-0.756-0.756c-0.398-0.434-0.775-0.887-1.108-1.377l-0.811-1.404c-0.287-0.572-0.537-1.166-0.735-1.789
				c-0.083-0.261-0.148-0.53-0.214-0.8c-0.244-0.992-0.386-2.031-0.384-3.117c0.017-6.87,5.724-12.486,12.594-12.469
				c6.87,0.017,12.549,5.661,12.532,12.531C147.732,26.086,147.593,27.097,147.357,28.062z"/>
		</g>
	</g>
	<path class="st6" d="M20.161,36.871l-7.846-0.019l-5.925-9.34l-0.064,0l-0.023,9.325L0,36.821l0.06-24.244l9.421,0.024
		c4.791,0.012,8.418,2.304,8.405,7.481c-0.008,3.344-1.88,6.233-5.322,6.836L20.161,36.871z M6.336,23.461l0.611,0.001
		c2.058,0.005,4.374-0.375,4.38-3.011s-2.307-3.028-4.365-3.033l-0.611-0.001L6.336,23.461z"/>
	<path class="st6" d="M42.308,12.682l-0.034,13.633c-0.008,3.119-0.144,6.205-2.562,8.547c-2.031,1.989-5.216,2.688-8.045,2.681
		c-2.83-0.007-6.011-0.722-8.032-2.721c-2.405-2.353-2.527-5.44-2.519-8.559l0.034-13.633l6.302,0.016L27.421,25.41
		c-0.008,3.151,0.209,6.592,4.26,6.602c4.051,0.01,4.285-3.43,4.293-6.581l0.032-12.765L42.308,12.682z"/>
	<path class="st6" d="M45.589,36.935l0.06-24.244l9.003,0.022c4.308,0.011,7.198,1.69,7.187,6.32
		c-0.005,2.186-0.717,3.953-2.681,4.945v0.064c3.471,0.459,4.945,2.81,4.936,6.186c-0.013,5.08-4.357,6.742-8.795,6.73
		L45.589,36.935z M51.904,32.127l0.804,0.002c1.865,0.005,5.015,0.109,5.022-2.56c0.007-2.926-3.112-2.644-5.17-2.649l-0.643-0.002
		L51.904,32.127z M51.928,22.224l0.707,0.002c1.672,0.004,3.409-0.281,3.414-2.339c0.005-2.219-1.956-2.352-3.66-2.356l-0.45-0.001
		L51.928,22.224z"/>
	<path class="st6" d="M64.103,12.737l7.556,0.019l4.518,6.603l4.55-6.581l7.556,0.019l-8.97,12.582l-0.029,11.64l-6.302-0.016
		l0.029-11.64L64.103,12.737z"/>
	<path class="st6" d="M106.983,17.473c-1.732-1.548-4.11-2.39-6.392-2.395c-5.434-0.014-9.594,4.51-9.607,9.879
		c-0.013,5.305,4.091,9.85,9.493,9.863c2.379,0.006,4.664-0.889,6.469-2.492l-0.009,3.569c-1.867,1.089-4.249,1.694-6.37,1.688
		c-6.913-0.017-12.623-5.53-12.606-12.539c0.018-7.17,5.787-12.751,12.925-12.733c2.122,0.005,4.275,0.525,6.105,1.655
		L106.983,17.473z"/>
	<path class="st6" d="M163.414,11.757l18.152,19.113l0.045-17.91l3.022,0.008l-0.063,25.241l-18.152-19.113l-0.045,18.071
		l-3.022-0.007L163.414,11.757z"/>
	<path class="st6" d="M191.28,15.749l-0.017,6.817l8.424,0.021l-0.007,2.765l-8.424-0.021l-0.03,11.897l-3.022-0.007l0.06-24.244
		L200,13.006l-0.007,2.765L191.28,15.749z"/>
</g>
</svg>